<svg width="18" height="17" viewBox="0 0 18 17" fill="none" xmlns="http://www.w3.org/2000/svg">
<path d="M7.10329 0.55797C7.18581 0.390504 7.31357 0.249484 7.4721 0.150874C7.63063 0.0522634 7.81359 0 8.00029 0C8.18699 0 8.36995 0.0522634 8.52848 0.150874C8.68701 0.249484 8.81476 0.390504 8.89729 0.55797L10.8273 4.46797L15.1443 5.09597C15.329 5.12279 15.5025 5.20077 15.6452 5.32107C15.7879 5.44138 15.894 5.59922 15.9517 5.77673C16.0093 5.95424 16.0161 6.14434 15.9714 6.32553C15.9266 6.50671 15.832 6.67175 15.6983 6.80197L15.1493 7.33697C14.2034 6.81665 13.1253 6.58621 12.0493 6.67436C10.9734 6.76251 9.94717 7.16536 9.09858 7.8327C8.24998 8.50003 7.61655 9.40235 7.27721 10.4272C6.93788 11.452 6.90765 12.5541 7.19029 13.596L4.14029 15.2C3.97503 15.2872 3.78865 15.3263 3.60228 15.313C3.4159 15.2996 3.23699 15.2344 3.08583 15.1245C2.93467 15.0147 2.8173 14.8647 2.74704 14.6916C2.67677 14.5184 2.65642 14.3291 2.68829 14.145L3.42629 9.84597L0.30229 6.80197C0.168587 6.67175 0.0739938 6.50671 0.0292122 6.32553C-0.0155694 6.14434 -0.00875233 5.95424 0.0488922 5.77673C0.106537 5.59922 0.212708 5.44138 0.355395 5.32107C0.498082 5.20077 0.67159 5.12279 0.85629 5.09597L5.17329 4.46897L7.10329 0.556969V0.55797Z" fill="#F1EA34"/>
<path d="M17.0013 12.158C17.0013 13.3514 16.5272 14.496 15.6833 15.34C14.8393 16.1839 13.6948 16.658 12.5013 16.658C11.3078 16.658 10.1632 16.1839 9.3193 15.34C8.47539 14.496 8.00128 13.3514 8.00128 12.158C8.00128 10.9645 8.47539 9.81991 9.3193 8.97599C10.1632 8.13208 11.3078 7.65797 12.5013 7.65797C13.6948 7.65797 14.8393 8.13208 15.6833 8.97599C16.5272 9.81991 17.0013 10.9645 17.0013 12.158ZM13.0013 10.158C13.0013 10.0254 12.9486 9.89819 12.8548 9.80442C12.7611 9.71065 12.6339 9.65797 12.5013 9.65797C12.3687 9.65797 12.2415 9.71065 12.1477 9.80442C12.054 9.89819 12.0013 10.0254 12.0013 10.158V11.658H10.5013C10.3687 11.658 10.2415 11.7107 10.1477 11.8044C10.054 11.8982 10.0013 12.0254 10.0013 12.158C10.0013 12.2906 10.054 12.4178 10.1477 12.5115C10.2415 12.6053 10.3687 12.658 10.5013 12.658H12.0013V14.158C12.0013 14.2906 12.054 14.4178 12.1477 14.5115C12.2415 14.6053 12.3687 14.658 12.5013 14.658C12.6339 14.658 12.7611 14.6053 12.8548 14.5115C12.9486 14.4178 13.0013 14.2906 13.0013 14.158V12.658H14.5013C14.6339 12.658 14.7611 12.6053 14.8548 12.5115C14.9486 12.4178 15.0013 12.2906 15.0013 12.158C15.0013 12.0254 14.9486 11.8982 14.8548 11.8044C14.7611 11.7107 14.6339 11.658 14.5013 11.658H13.0013V10.158Z" fill="#F1EA34"/>
</svg>
