<svg width="10" height="12" viewBox="0 0 10 12" fill="none" xmlns="http://www.w3.org/2000/svg">
<path d="M1.875 0.0959778C2.37228 0.0959778 2.84919 0.297049 3.20083 0.654959C3.55246 1.01287 3.75 1.4983 3.75 2.00446V9.63839C3.75 10.1445 3.55246 10.63 3.20083 10.9879C2.84919 11.3458 2.37228 11.5469 1.875 11.5469C1.37772 11.5469 0.900805 11.3458 0.549175 10.9879C0.197544 10.63 1.04794e-08 10.1445 0 9.63839V2.00446C0 1.4983 0.197544 1.01287 0.549175 0.654959C0.900805 0.297049 1.37772 0.0959778 1.875 0.0959778ZM8.125 0.0959778C8.62228 0.0959778 9.09919 0.297049 9.45083 0.654959C9.80246 1.01287 10 1.4983 10 2.00446V9.63839C10 10.1445 9.80246 10.63 9.45083 10.9879C9.09919 11.3458 8.62228 11.5469 8.125 11.5469C7.62772 11.5469 7.15081 11.3458 6.79917 10.9879C6.44754 10.63 6.25 10.1445 6.25 9.63839V2.00446C6.25 1.4983 6.44754 1.01287 6.79917 0.654959C7.15081 0.297049 7.62772 0.0959778 8.125 0.0959778Z" fill="black"/>
</svg>
