<svg width="16" height="16" viewBox="0 0 16 16" fill="none" xmlns="http://www.w3.org/2000/svg">
<path d="M0.854632 0.146631C0.808144 0.100144 0.752955 0.0632674 0.692215 0.0381083C0.631476 0.0129493 0.566376 4.8983e-10 0.500632 0C0.434888 -4.8983e-10 0.369788 0.0129493 0.309048 0.0381083C0.248309 0.0632674 0.19312 0.100144 0.146632 0.146631C0.100144 0.193119 0.0632674 0.248309 0.0381083 0.309048C0.0129493 0.369788 -4.8983e-10 0.434888 0 0.500632C4.8983e-10 0.566375 0.0129493 0.631476 0.0381083 0.692215C0.0632674 0.752954 0.100144 0.808144 0.146632 0.854632L4.23963 4.94663L0.855632 5.43863C0.671137 5.46559 0.497854 5.5436 0.35535 5.66384C0.212847 5.78408 0.106798 5.94177 0.0491796 6.1191C-0.00843921 6.29643 -0.0153331 6.48633 0.0292764 6.66737C0.0738858 6.84841 0.168222 7.01337 0.301632 7.14363L3.42563 10.1886L2.68763 14.4886C2.65657 14.6724 2.67747 14.8612 2.74798 15.0337C2.81848 15.2062 2.93579 15.3555 3.08667 15.4649C3.23754 15.5743 3.41598 15.6394 3.60186 15.6527C3.78773 15.6661 3.97365 15.6273 4.13863 15.5406L7.99963 13.5106L11.8596 15.5406C12.0248 15.6277 12.2111 15.6669 12.3973 15.6535C12.5836 15.6402 12.7624 15.5751 12.9135 15.4654C13.0647 15.3557 13.182 15.2058 13.2524 15.0329C13.3228 14.8599 13.3433 14.6707 13.3116 14.4866L13.2146 13.9206L15.1466 15.8536C15.2405 15.9474 15.3678 16 15.5005 15.9999C15.6332 15.9998 15.7604 15.947 15.8541 15.8531C15.9479 15.7592 16.0005 15.632 16.0004 15.4993C16.0003 15.3666 15.9475 15.2394 15.8536 15.1456L0.853632 0.145632L0.854632 0.146631Z" fill="#E11919"/>
<path d="M12.5736 10.1886L12.6286 10.5076L5.75363 3.63263L7.10363 0.90063C7.18626 0.73343 7.314 0.592669 7.47242 0.494249C7.63084 0.395829 7.81363 0.343674 8.00013 0.343674C8.18663 0.343674 8.36942 0.395829 8.52784 0.494249C8.68626 0.592669 8.814 0.73343 8.89663 0.90063L10.8266 4.81163L15.1436 5.43963C15.3281 5.46659 15.5014 5.5446 15.6439 5.66484C15.7864 5.78508 15.8925 5.94277 15.9501 6.1201C16.0077 6.29743 16.0146 6.48733 15.97 6.66837C15.9254 6.84941 15.831 7.01437 15.6976 7.14463L12.5736 10.1896V10.1886Z" fill="#E11919"/>
</svg>
